<mxfile host="app.diagrams.net" modified="2024-02-05T14:31:32.299Z" agent="Mozilla/5.0 (Windows NT 10.0; Win64; x64) AppleWebKit/537.36 (KHTML, like Gecko) Chrome/121.0.0.0 Safari/537.36 Edg/121.0.0.0" etag="mKp-tkI6CSqaMXkImUpJ" version="23.1.1" type="device">
  <diagram id="6a731a19-8d31-9384-78a2-239565b7b9f0" name="Page-1">
    <mxGraphModel dx="1431" dy="884" grid="1" gridSize="10" guides="1" tooltips="1" connect="1" arrows="1" fold="1" page="1" pageScale="1" pageWidth="1169" pageHeight="827" background="none" math="0" shadow="0">
      <root>
        <mxCell id="0" />
        <mxCell id="1" parent="0" />
        <mxCell id="N-EXLYOBHCz0gF71m2AQ-140" value="" style="rounded=1;whiteSpace=wrap;html=1;fontFamily=Helvetica;fontSize=12;fontColor=default;fillColor=default;dashed=1;" parent="1" vertex="1">
          <mxGeometry x="150" y="8" width="935" height="342" as="geometry" />
        </mxCell>
        <mxCell id="N-EXLYOBHCz0gF71m2AQ-133" value="" style="rounded=1;whiteSpace=wrap;html=1;fontFamily=Helvetica;fontSize=12;fontColor=default;fillColor=default;dashed=1;" parent="1" vertex="1">
          <mxGeometry x="300" y="323" width="785" height="496" as="geometry" />
        </mxCell>
        <mxCell id="N-EXLYOBHCz0gF71m2AQ-56" value="Temperature" style="rounded=1;whiteSpace=wrap;html=1;fontSize=16;strokeWidth=1;" parent="1" vertex="1">
          <mxGeometry x="285" y="33" width="120" height="60" as="geometry" />
        </mxCell>
        <mxCell id="N-EXLYOBHCz0gF71m2AQ-57" value="Lockdown" style="rounded=1;whiteSpace=wrap;html=1;fontSize=16;strokeWidth=1;" parent="1" vertex="1">
          <mxGeometry x="285" y="103" width="120" height="60" as="geometry" />
        </mxCell>
        <mxCell id="N-EXLYOBHCz0gF71m2AQ-58" value="True Means" style="rounded=1;whiteSpace=wrap;html=1;fontSize=16;strokeWidth=1;" parent="1" vertex="1">
          <mxGeometry x="730" y="72" width="120" height="60" as="geometry" />
        </mxCell>
        <mxCell id="N-EXLYOBHCz0gF71m2AQ-59" value="&lt;p class=&quot;pf0&quot;&gt;Stochasticity&lt;/p&gt;" style="rounded=1;whiteSpace=wrap;html=1;fontSize=16;strokeWidth=1;" parent="1" vertex="1">
          <mxGeometry x="285" y="243" width="120" height="60" as="geometry" />
        </mxCell>
        <mxCell id="N-EXLYOBHCz0gF71m2AQ-60" value="Factors" style="text;html=1;strokeColor=none;fillColor=none;align=center;verticalAlign=middle;whiteSpace=wrap;rounded=0;fontSize=16;" parent="1" vertex="1">
          <mxGeometry x="165" y="158" width="60" height="30" as="geometry" />
        </mxCell>
        <mxCell id="N-EXLYOBHCz0gF71m2AQ-62" value="" style="endArrow=classic;html=1;rounded=1;fontSize=12;startSize=8;endSize=8;exitX=1;exitY=0.5;exitDx=0;exitDy=0;entryX=0;entryY=0.5;entryDx=0;entryDy=0;edgeStyle=orthogonalEdgeStyle;curved=0;" parent="1" source="N-EXLYOBHCz0gF71m2AQ-56" target="N-EXLYOBHCz0gF71m2AQ-67" edge="1">
          <mxGeometry width="50" height="50" relative="1" as="geometry">
            <mxPoint x="285" y="238" as="sourcePoint" />
            <mxPoint x="255.0000000000008" y="218" as="targetPoint" />
          </mxGeometry>
        </mxCell>
        <mxCell id="N-EXLYOBHCz0gF71m2AQ-63" value="" style="endArrow=classic;html=1;rounded=1;fontSize=12;startSize=8;endSize=8;exitX=1;exitY=0.5;exitDx=0;exitDy=0;entryX=0;entryY=0.5;entryDx=0;entryDy=0;edgeStyle=orthogonalEdgeStyle;curved=0;" parent="1" source="N-EXLYOBHCz0gF71m2AQ-57" target="N-EXLYOBHCz0gF71m2AQ-67" edge="1">
          <mxGeometry width="50" height="50" relative="1" as="geometry">
            <mxPoint x="285" y="238" as="sourcePoint" />
            <mxPoint x="255.0000000000008" y="218" as="targetPoint" />
          </mxGeometry>
        </mxCell>
        <mxCell id="N-EXLYOBHCz0gF71m2AQ-65" value="" style="endArrow=classic;html=1;rounded=1;fontSize=12;startSize=8;endSize=8;exitX=1;exitY=0.5;exitDx=0;exitDy=0;entryX=0;entryY=0.5;entryDx=0;entryDy=0;edgeStyle=orthogonalEdgeStyle;curved=0;" parent="1" source="N-EXLYOBHCz0gF71m2AQ-59" target="N-EXLYOBHCz0gF71m2AQ-67" edge="1">
          <mxGeometry width="50" height="50" relative="1" as="geometry">
            <mxPoint x="275" y="208" as="sourcePoint" />
            <mxPoint x="255.0000000000008" y="218" as="targetPoint" />
          </mxGeometry>
        </mxCell>
        <mxCell id="N-EXLYOBHCz0gF71m2AQ-67" value="&lt;font style=&quot;font-size: 16px;&quot;&gt;Product&lt;/font&gt;" style="rhombus;whiteSpace=wrap;html=1;fontFamily=Helvetica;fontSize=12;fontColor=default;" parent="1" vertex="1">
          <mxGeometry x="535" y="57" width="120" height="90" as="geometry" />
        </mxCell>
        <mxCell id="N-EXLYOBHCz0gF71m2AQ-68" value="Holidays" style="rounded=1;whiteSpace=wrap;html=1;fontSize=16;strokeWidth=1;" parent="1" vertex="1">
          <mxGeometry x="285" y="173" width="120" height="60" as="geometry" />
        </mxCell>
        <mxCell id="N-EXLYOBHCz0gF71m2AQ-70" value="" style="endArrow=classic;html=1;rounded=1;fontSize=12;startSize=8;endSize=8;exitX=1;exitY=0.5;exitDx=0;exitDy=0;entryX=0;entryY=0.5;entryDx=0;entryDy=0;edgeStyle=orthogonalEdgeStyle;curved=0;" parent="1" source="N-EXLYOBHCz0gF71m2AQ-68" target="N-EXLYOBHCz0gF71m2AQ-67" edge="1">
          <mxGeometry width="50" height="50" relative="1" as="geometry">
            <mxPoint x="195" y="318" as="sourcePoint" />
            <mxPoint x="265" y="218" as="targetPoint" />
          </mxGeometry>
        </mxCell>
        <mxCell id="N-EXLYOBHCz0gF71m2AQ-126" style="edgeStyle=orthogonalEdgeStyle;shape=connector;curved=0;rounded=1;orthogonalLoop=1;jettySize=auto;html=1;exitX=0.5;exitY=1;exitDx=0;exitDy=0;entryX=0.5;entryY=0;entryDx=0;entryDy=0;labelBackgroundColor=default;strokeColor=default;align=center;verticalAlign=middle;fontFamily=Helvetica;fontSize=12;fontColor=default;endArrow=classic;startSize=8;endSize=8;" parent="1" source="N-EXLYOBHCz0gF71m2AQ-73" target="N-EXLYOBHCz0gF71m2AQ-76" edge="1">
          <mxGeometry relative="1" as="geometry" />
        </mxCell>
        <mxCell id="N-EXLYOBHCz0gF71m2AQ-73" value="&lt;font style=&quot;font-size: 16px;&quot;&gt;Poisson &lt;br&gt;Sampling&lt;/font&gt;" style="rhombus;whiteSpace=wrap;html=1;fontFamily=Helvetica;fontSize=12;fontColor=default;" parent="1" vertex="1">
          <mxGeometry x="915" y="57" width="120" height="90" as="geometry" />
        </mxCell>
        <mxCell id="N-EXLYOBHCz0gF71m2AQ-74" value="" style="endArrow=classic;html=1;rounded=1;labelBackgroundColor=default;strokeColor=default;align=center;verticalAlign=middle;fontFamily=Helvetica;fontSize=12;fontColor=default;startSize=8;endSize=8;shape=connector;edgeStyle=orthogonalEdgeStyle;curved=0;exitX=1;exitY=0.5;exitDx=0;exitDy=0;entryX=0;entryY=0.5;entryDx=0;entryDy=0;dashed=1;" parent="1" source="N-EXLYOBHCz0gF71m2AQ-58" target="N-EXLYOBHCz0gF71m2AQ-73" edge="1">
          <mxGeometry width="50" height="50" relative="1" as="geometry">
            <mxPoint x="830" y="232" as="sourcePoint" />
            <mxPoint x="880" y="182" as="targetPoint" />
          </mxGeometry>
        </mxCell>
        <mxCell id="N-EXLYOBHCz0gF71m2AQ-124" style="edgeStyle=orthogonalEdgeStyle;shape=connector;curved=0;rounded=1;orthogonalLoop=1;jettySize=auto;html=1;exitX=0.5;exitY=1;exitDx=0;exitDy=0;entryX=0.5;entryY=0;entryDx=0;entryDy=0;labelBackgroundColor=default;strokeColor=#001DBC;align=center;verticalAlign=middle;fontFamily=Helvetica;fontSize=12;fontColor=default;endArrow=classic;startSize=8;endSize=8;fillColor=#0050ef;" parent="1" source="N-EXLYOBHCz0gF71m2AQ-76" target="N-EXLYOBHCz0gF71m2AQ-123" edge="1">
          <mxGeometry relative="1" as="geometry" />
        </mxCell>
        <mxCell id="N-EXLYOBHCz0gF71m2AQ-76" value="Unbiased Observations" style="rounded=1;whiteSpace=wrap;html=1;fontSize=16;strokeWidth=1;" parent="1" vertex="1">
          <mxGeometry x="535" y="215" width="120" height="60" as="geometry" />
        </mxCell>
        <mxCell id="N-EXLYOBHCz0gF71m2AQ-77" value="&lt;span style=&quot;font-size: 16px;&quot;&gt;Modify,&lt;br&gt;Remove&lt;/span&gt;" style="rhombus;whiteSpace=wrap;html=1;fontFamily=Helvetica;fontSize=12;fontColor=default;" parent="1" vertex="1">
          <mxGeometry x="725" y="200" width="120" height="90" as="geometry" />
        </mxCell>
        <mxCell id="N-EXLYOBHCz0gF71m2AQ-78" value="" style="endArrow=classic;html=1;rounded=1;labelBackgroundColor=default;strokeColor=default;align=center;verticalAlign=middle;fontFamily=Helvetica;fontSize=12;fontColor=default;startSize=8;endSize=8;shape=connector;edgeStyle=orthogonalEdgeStyle;curved=0;exitX=1;exitY=0.5;exitDx=0;exitDy=0;entryX=0;entryY=0.5;entryDx=0;entryDy=0;" parent="1" source="N-EXLYOBHCz0gF71m2AQ-76" target="N-EXLYOBHCz0gF71m2AQ-77" edge="1">
          <mxGeometry width="50" height="50" relative="1" as="geometry">
            <mxPoint x="505" y="255" as="sourcePoint" />
            <mxPoint x="555" y="255" as="targetPoint" />
          </mxGeometry>
        </mxCell>
        <mxCell id="N-EXLYOBHCz0gF71m2AQ-79" value="Biased Observations" style="rounded=1;whiteSpace=wrap;html=1;fontSize=16;strokeWidth=1;" parent="1" vertex="1">
          <mxGeometry x="915" y="215" width="120" height="60" as="geometry" />
        </mxCell>
        <mxCell id="N-EXLYOBHCz0gF71m2AQ-80" value="" style="endArrow=classic;html=1;rounded=1;labelBackgroundColor=default;strokeColor=default;align=center;verticalAlign=middle;fontFamily=Helvetica;fontSize=12;fontColor=default;startSize=8;endSize=8;shape=connector;edgeStyle=orthogonalEdgeStyle;curved=0;exitX=1;exitY=0.5;exitDx=0;exitDy=0;entryX=0;entryY=0.5;entryDx=0;entryDy=0;" parent="1" source="N-EXLYOBHCz0gF71m2AQ-77" target="N-EXLYOBHCz0gF71m2AQ-79" edge="1">
          <mxGeometry width="50" height="50" relative="1" as="geometry">
            <mxPoint x="675" y="255" as="sourcePoint" />
            <mxPoint x="725" y="255" as="targetPoint" />
          </mxGeometry>
        </mxCell>
        <mxCell id="N-EXLYOBHCz0gF71m2AQ-142" style="edgeStyle=orthogonalEdgeStyle;shape=connector;curved=0;rounded=1;orthogonalLoop=1;jettySize=auto;html=1;exitX=0.5;exitY=1;exitDx=0;exitDy=0;entryX=1;entryY=0.5;entryDx=0;entryDy=0;labelBackgroundColor=default;strokeColor=default;align=center;verticalAlign=middle;fontFamily=Helvetica;fontSize=12;fontColor=default;endArrow=classic;startSize=8;endSize=8;" parent="1" source="N-EXLYOBHCz0gF71m2AQ-85" target="N-EXLYOBHCz0gF71m2AQ-90" edge="1">
          <mxGeometry relative="1" as="geometry" />
        </mxCell>
        <mxCell id="N-EXLYOBHCz0gF71m2AQ-143" value="&lt;font style=&quot;font-size: 16px;&quot;&gt;kth partition&lt;/font&gt;" style="edgeLabel;html=1;align=center;verticalAlign=middle;resizable=0;points=[];fontSize=12;fontFamily=Helvetica;fontColor=default;" parent="N-EXLYOBHCz0gF71m2AQ-142" vertex="1" connectable="0">
          <mxGeometry x="0.534" y="3" relative="1" as="geometry">
            <mxPoint x="20" y="-3" as="offset" />
          </mxGeometry>
        </mxCell>
        <mxCell id="N-EXLYOBHCz0gF71m2AQ-85" value="&lt;span style=&quot;font-size: 16px;&quot;&gt;Partition&lt;/span&gt;" style="rhombus;whiteSpace=wrap;html=1;fontFamily=Helvetica;fontSize=12;fontColor=default;" parent="1" vertex="1">
          <mxGeometry x="915" y="340" width="120" height="90" as="geometry" />
        </mxCell>
        <mxCell id="N-EXLYOBHCz0gF71m2AQ-86" value="" style="endArrow=classic;html=1;rounded=1;labelBackgroundColor=default;strokeColor=default;align=center;verticalAlign=middle;fontFamily=Helvetica;fontSize=12;fontColor=default;startSize=8;endSize=8;shape=connector;edgeStyle=orthogonalEdgeStyle;curved=0;exitX=0.5;exitY=1;exitDx=0;exitDy=0;entryX=0.5;entryY=0;entryDx=0;entryDy=0;" parent="1" source="N-EXLYOBHCz0gF71m2AQ-79" target="N-EXLYOBHCz0gF71m2AQ-85" edge="1">
          <mxGeometry width="50" height="50" relative="1" as="geometry">
            <mxPoint x="645" y="468" as="sourcePoint" />
            <mxPoint x="945" y="343" as="targetPoint" />
            <Array as="points" />
          </mxGeometry>
        </mxCell>
        <mxCell id="N-EXLYOBHCz0gF71m2AQ-88" value="" style="endArrow=classic;html=1;rounded=1;labelBackgroundColor=default;strokeColor=default;align=center;verticalAlign=middle;fontFamily=Helvetica;fontSize=12;fontColor=default;startSize=8;endSize=8;shape=connector;edgeStyle=orthogonalEdgeStyle;curved=0;exitX=0.5;exitY=1;exitDx=0;exitDy=0;" parent="1" source="N-EXLYOBHCz0gF71m2AQ-85" target="N-EXLYOBHCz0gF71m2AQ-89" edge="1">
          <mxGeometry width="50" height="50" relative="1" as="geometry">
            <mxPoint x="975" y="407" as="sourcePoint" />
            <mxPoint x="685" y="532" as="targetPoint" />
            <Array as="points" />
          </mxGeometry>
        </mxCell>
        <mxCell id="N-EXLYOBHCz0gF71m2AQ-129" style="edgeStyle=orthogonalEdgeStyle;shape=connector;curved=0;rounded=1;orthogonalLoop=1;jettySize=auto;html=1;exitX=0;exitY=0.5;exitDx=0;exitDy=0;entryX=1;entryY=0.5;entryDx=0;entryDy=0;labelBackgroundColor=default;strokeColor=default;align=center;verticalAlign=middle;fontFamily=Helvetica;fontSize=12;fontColor=default;endArrow=classic;startSize=8;endSize=8;" parent="1" source="N-EXLYOBHCz0gF71m2AQ-89" target="N-EXLYOBHCz0gF71m2AQ-97" edge="1">
          <mxGeometry relative="1" as="geometry" />
        </mxCell>
        <mxCell id="N-EXLYOBHCz0gF71m2AQ-130" value="&lt;font style=&quot;font-size: 16px;&quot;&gt;Training&lt;/font&gt;" style="edgeLabel;html=1;align=center;verticalAlign=middle;resizable=0;points=[];fontSize=12;fontFamily=Helvetica;fontColor=default;labelBackgroundColor=none;" parent="N-EXLYOBHCz0gF71m2AQ-129" vertex="1" connectable="0">
          <mxGeometry x="0.1647" y="-1" relative="1" as="geometry">
            <mxPoint x="12" y="-9" as="offset" />
          </mxGeometry>
        </mxCell>
        <mxCell id="N-EXLYOBHCz0gF71m2AQ-89" value="&lt;font style=&quot;font-size: 16px;&quot;&gt;Train Data&lt;/font&gt;" style="rounded=1;whiteSpace=wrap;html=1;fontFamily=Helvetica;fontSize=12;fontColor=default;" parent="1" vertex="1">
          <mxGeometry x="915" y="717" width="120" height="60" as="geometry" />
        </mxCell>
        <mxCell id="N-EXLYOBHCz0gF71m2AQ-116" style="edgeStyle=orthogonalEdgeStyle;shape=connector;curved=0;rounded=1;orthogonalLoop=1;jettySize=auto;html=1;exitX=0;exitY=0.5;exitDx=0;exitDy=0;entryX=1;entryY=0.5;entryDx=0;entryDy=0;labelBackgroundColor=default;strokeColor=#CC0000;align=center;verticalAlign=middle;fontFamily=Helvetica;fontSize=12;fontColor=default;endArrow=classic;startSize=8;endSize=8;fillColor=#a20025;" parent="1" source="N-EXLYOBHCz0gF71m2AQ-90" target="N-EXLYOBHCz0gF71m2AQ-110" edge="1">
          <mxGeometry relative="1" as="geometry" />
        </mxCell>
        <mxCell id="N-EXLYOBHCz0gF71m2AQ-90" value="&lt;span style=&quot;font-size: 16px;&quot;&gt;Test Data&lt;/span&gt;" style="rounded=1;whiteSpace=wrap;html=1;fontFamily=Helvetica;fontSize=12;fontColor=default;" parent="1" vertex="1">
          <mxGeometry x="705" y="485" width="120" height="60" as="geometry" />
        </mxCell>
        <mxCell id="N-EXLYOBHCz0gF71m2AQ-95" value="" style="strokeWidth=1;html=1;shape=mxgraph.flowchart.annotation_2;align=left;labelPosition=right;pointerEvents=1;fontFamily=Helvetica;fontSize=12;fontColor=default;shadow=0;" parent="1" vertex="1">
          <mxGeometry x="235" y="23" width="50" height="300" as="geometry" />
        </mxCell>
        <mxCell id="N-EXLYOBHCz0gF71m2AQ-96" value="&lt;font style=&quot;font-size: 16px;&quot;&gt;For k = 1...5&lt;/font&gt;" style="shape=umlFrame;whiteSpace=wrap;html=1;pointerEvents=0;fontFamily=Helvetica;fontSize=12;fontColor=default;width=110;height=30;" parent="1" vertex="1">
          <mxGeometry x="470" y="447" width="570" height="360" as="geometry" />
        </mxCell>
        <mxCell id="N-EXLYOBHCz0gF71m2AQ-97" value="&lt;font style=&quot;font-size: 16px;&quot;&gt;Trained&lt;br&gt;Model&lt;/font&gt;" style="rounded=1;whiteSpace=wrap;html=1;fontFamily=Helvetica;fontSize=12;fontColor=default;" parent="1" vertex="1">
          <mxGeometry x="705" y="717" width="120" height="60" as="geometry" />
        </mxCell>
        <mxCell id="N-EXLYOBHCz0gF71m2AQ-102" value="&lt;font style=&quot;font-size: 16px;&quot;&gt;Model Hyperparameters&lt;/font&gt;" style="rounded=1;whiteSpace=wrap;html=1;fontFamily=Helvetica;fontSize=12;fontColor=default;" parent="1" vertex="1">
          <mxGeometry x="145" y="717" width="140" height="60" as="geometry" />
        </mxCell>
        <mxCell id="N-EXLYOBHCz0gF71m2AQ-103" value="" style="endArrow=classic;html=1;rounded=1;labelBackgroundColor=default;strokeColor=default;align=center;verticalAlign=middle;fontFamily=Helvetica;fontSize=12;fontColor=default;startSize=8;endSize=8;shape=connector;edgeStyle=orthogonalEdgeStyle;curved=0;dashed=1;exitX=1;exitY=0.5;exitDx=0;exitDy=0;" parent="1" source="N-EXLYOBHCz0gF71m2AQ-102" edge="1">
          <mxGeometry width="50" height="50" relative="1" as="geometry">
            <mxPoint x="685" y="633" as="sourcePoint" />
            <mxPoint x="700" y="747" as="targetPoint" />
            <Array as="points">
              <mxPoint x="400" y="747" />
              <mxPoint x="400" y="747" />
            </Array>
          </mxGeometry>
        </mxCell>
        <mxCell id="N-EXLYOBHCz0gF71m2AQ-104" value="&lt;span style=&quot;font-size: 16px;&quot;&gt;Predict&lt;/span&gt;" style="rhombus;whiteSpace=wrap;html=1;fontFamily=Helvetica;fontSize=12;fontColor=default;" parent="1" vertex="1">
          <mxGeometry x="705" y="592.5" width="120" height="90" as="geometry" />
        </mxCell>
        <mxCell id="N-EXLYOBHCz0gF71m2AQ-105" value="" style="endArrow=classic;html=1;rounded=1;labelBackgroundColor=default;strokeColor=default;align=center;verticalAlign=middle;fontFamily=Helvetica;fontSize=12;fontColor=default;startSize=8;endSize=8;shape=connector;edgeStyle=orthogonalEdgeStyle;curved=0;" parent="1" source="N-EXLYOBHCz0gF71m2AQ-90" target="N-EXLYOBHCz0gF71m2AQ-104" edge="1">
          <mxGeometry width="50" height="50" relative="1" as="geometry">
            <mxPoint x="585" y="717.5" as="sourcePoint" />
            <mxPoint x="635" y="667.5" as="targetPoint" />
          </mxGeometry>
        </mxCell>
        <mxCell id="N-EXLYOBHCz0gF71m2AQ-106" value="" style="endArrow=classic;html=1;rounded=1;labelBackgroundColor=default;strokeColor=default;align=center;verticalAlign=middle;fontFamily=Helvetica;fontSize=12;fontColor=default;startSize=8;endSize=8;shape=connector;edgeStyle=orthogonalEdgeStyle;curved=0;dashed=1;" parent="1" source="N-EXLYOBHCz0gF71m2AQ-97" target="N-EXLYOBHCz0gF71m2AQ-104" edge="1">
          <mxGeometry width="50" height="50" relative="1" as="geometry">
            <mxPoint x="595" y="647" as="sourcePoint" />
            <mxPoint x="645" y="597" as="targetPoint" />
          </mxGeometry>
        </mxCell>
        <mxCell id="N-EXLYOBHCz0gF71m2AQ-107" value="" style="endArrow=classic;html=1;rounded=1;labelBackgroundColor=default;strokeColor=default;align=center;verticalAlign=middle;fontFamily=Helvetica;fontSize=12;fontColor=default;startSize=8;endSize=8;shape=connector;edgeStyle=orthogonalEdgeStyle;curved=0;" parent="1" source="N-EXLYOBHCz0gF71m2AQ-104" target="cHCE-FeERzMHVEpSSORq-8" edge="1">
          <mxGeometry width="50" height="50" relative="1" as="geometry">
            <mxPoint x="725" y="577.5" as="sourcePoint" />
            <mxPoint x="655" y="637.5" as="targetPoint" />
            <Array as="points" />
          </mxGeometry>
        </mxCell>
        <mxCell id="N-EXLYOBHCz0gF71m2AQ-113" style="edgeStyle=orthogonalEdgeStyle;shape=connector;curved=0;rounded=1;orthogonalLoop=1;jettySize=auto;html=1;entryX=0.5;entryY=1;entryDx=0;entryDy=0;labelBackgroundColor=default;strokeColor=default;align=center;verticalAlign=middle;fontFamily=Helvetica;fontSize=12;fontColor=default;endArrow=classic;startSize=8;endSize=8;exitX=0.5;exitY=0;exitDx=0;exitDy=0;" parent="1" source="cHCE-FeERzMHVEpSSORq-8" target="N-EXLYOBHCz0gF71m2AQ-110" edge="1">
          <mxGeometry relative="1" as="geometry">
            <mxPoint x="595" y="607.5" as="sourcePoint" />
          </mxGeometry>
        </mxCell>
        <mxCell id="N-EXLYOBHCz0gF71m2AQ-136" style="edgeStyle=orthogonalEdgeStyle;shape=connector;curved=0;rounded=1;orthogonalLoop=1;jettySize=auto;html=1;exitX=0;exitY=0.5;exitDx=0;exitDy=0;entryX=1;entryY=0.5;entryDx=0;entryDy=0;labelBackgroundColor=default;strokeColor=default;align=center;verticalAlign=middle;fontFamily=Helvetica;fontSize=12;fontColor=default;endArrow=classic;startSize=8;endSize=8;" parent="1" source="N-EXLYOBHCz0gF71m2AQ-110" target="N-EXLYOBHCz0gF71m2AQ-118" edge="1">
          <mxGeometry relative="1" as="geometry">
            <mxPoint x="495" y="515" as="targetPoint" />
          </mxGeometry>
        </mxCell>
        <mxCell id="N-EXLYOBHCz0gF71m2AQ-110" value="&lt;span style=&quot;font-size: 15px;&quot;&gt;Compare,&lt;br&gt;Evaluate&lt;br&gt;&lt;/span&gt;" style="rhombus;whiteSpace=wrap;html=1;fontFamily=Helvetica;fontSize=12;fontColor=default;" parent="1" vertex="1">
          <mxGeometry x="535" y="470" width="120" height="90" as="geometry" />
        </mxCell>
        <mxCell id="N-EXLYOBHCz0gF71m2AQ-115" style="edgeStyle=orthogonalEdgeStyle;shape=connector;curved=0;rounded=1;orthogonalLoop=1;jettySize=auto;html=1;exitX=1;exitY=0.5;exitDx=0;exitDy=0;entryX=-0.028;entryY=0.508;entryDx=0;entryDy=0;entryPerimeter=0;labelBackgroundColor=default;strokeColor=default;align=center;verticalAlign=middle;fontFamily=Helvetica;fontSize=12;fontColor=default;endArrow=classic;startSize=8;endSize=8;" parent="1" source="N-EXLYOBHCz0gF71m2AQ-67" target="N-EXLYOBHCz0gF71m2AQ-58" edge="1">
          <mxGeometry relative="1" as="geometry" />
        </mxCell>
        <mxCell id="N-EXLYOBHCz0gF71m2AQ-122" style="edgeStyle=orthogonalEdgeStyle;shape=connector;curved=0;rounded=1;orthogonalLoop=1;jettySize=auto;html=1;exitX=0;exitY=0.5;exitDx=0;exitDy=0;entryX=1;entryY=0.5;entryDx=0;entryDy=0;labelBackgroundColor=default;strokeColor=default;align=center;verticalAlign=middle;fontFamily=Helvetica;fontSize=12;fontColor=default;endArrow=classic;startSize=8;endSize=8;" parent="1" source="N-EXLYOBHCz0gF71m2AQ-118" edge="1">
          <mxGeometry relative="1" as="geometry">
            <mxPoint x="270" y="515" as="targetPoint" />
          </mxGeometry>
        </mxCell>
        <mxCell id="N-EXLYOBHCz0gF71m2AQ-118" value="&lt;span style=&quot;font-size: 16px;&quot;&gt;Average&lt;br&gt;&lt;/span&gt;" style="rhombus;whiteSpace=wrap;html=1;fontFamily=Helvetica;fontSize=12;fontColor=default;" parent="1" vertex="1">
          <mxGeometry x="320" y="470" width="120" height="90" as="geometry" />
        </mxCell>
        <mxCell id="N-EXLYOBHCz0gF71m2AQ-125" style="edgeStyle=orthogonalEdgeStyle;shape=connector;curved=0;rounded=1;orthogonalLoop=1;jettySize=auto;html=1;exitX=0.5;exitY=1;exitDx=0;exitDy=0;entryX=0.5;entryY=0;entryDx=0;entryDy=0;labelBackgroundColor=default;strokeColor=#001DBC;align=center;verticalAlign=middle;fontFamily=Helvetica;fontSize=12;fontColor=default;endArrow=classic;startSize=8;endSize=8;fillColor=#0050ef;" parent="1" source="N-EXLYOBHCz0gF71m2AQ-123" target="N-EXLYOBHCz0gF71m2AQ-110" edge="1">
          <mxGeometry relative="1" as="geometry">
            <Array as="points">
              <mxPoint x="605" y="383" />
              <mxPoint x="605" y="383" />
            </Array>
          </mxGeometry>
        </mxCell>
        <mxCell id="N-EXLYOBHCz0gF71m2AQ-127" value="&lt;font color=&quot;#0000cc&quot;&gt;&lt;font style=&quot;&quot;&gt;&lt;span style=&quot;font-size: 16px;&quot;&gt;kth partition&lt;/span&gt;&lt;/font&gt;&amp;nbsp;&lt;/font&gt;" style="edgeLabel;html=1;align=center;verticalAlign=middle;resizable=0;points=[];fontSize=12;fontFamily=Helvetica;fontColor=default;" parent="N-EXLYOBHCz0gF71m2AQ-125" vertex="1" connectable="0">
          <mxGeometry x="-0.1183" y="2" relative="1" as="geometry">
            <mxPoint x="3" y="56" as="offset" />
          </mxGeometry>
        </mxCell>
        <mxCell id="N-EXLYOBHCz0gF71m2AQ-123" value="&lt;span style=&quot;font-size: 16px;&quot;&gt;&lt;font color=&quot;#0000cc&quot;&gt;Partition&lt;/font&gt;&lt;/span&gt;" style="rhombus;whiteSpace=wrap;html=1;fontFamily=Helvetica;fontSize=12;strokeColor=#0000CC;" parent="1" vertex="1">
          <mxGeometry x="535" y="340" width="120" height="90" as="geometry" />
        </mxCell>
        <mxCell id="N-EXLYOBHCz0gF71m2AQ-134" value="&lt;font style=&quot;font-size: 22px;&quot;&gt;Cross-validation&lt;/font&gt;" style="text;html=1;strokeColor=none;fillColor=none;align=center;verticalAlign=middle;whiteSpace=wrap;rounded=0;fontSize=12;fontFamily=Helvetica;fontColor=default;" parent="1" vertex="1">
          <mxGeometry x="690" y="350" width="180" height="30" as="geometry" />
        </mxCell>
        <mxCell id="N-EXLYOBHCz0gF71m2AQ-141" value="&lt;span style=&quot;font-size: 22px;&quot;&gt;Simulation and Imposition of Bias&lt;/span&gt;" style="text;html=1;strokeColor=none;fillColor=none;align=center;verticalAlign=middle;whiteSpace=wrap;rounded=0;fontSize=12;fontFamily=Helvetica;fontColor=default;" parent="1" vertex="1">
          <mxGeometry x="415" y="8" width="360" height="30" as="geometry" />
        </mxCell>
        <mxCell id="cHCE-FeERzMHVEpSSORq-1" value="" style="endArrow=classic;html=1;rounded=1;fontSize=12;startSize=8;endSize=8;exitX=1;exitY=0.5;exitDx=0;exitDy=0;entryX=0;entryY=0.5;entryDx=0;entryDy=0;edgeStyle=orthogonalEdgeStyle;dashed=1;" edge="1" parent="1" source="N-EXLYOBHCz0gF71m2AQ-56" target="N-EXLYOBHCz0gF71m2AQ-76">
          <mxGeometry width="50" height="50" relative="1" as="geometry">
            <mxPoint x="530" y="250" as="sourcePoint" />
            <mxPoint x="580" y="200" as="targetPoint" />
            <Array as="points">
              <mxPoint x="480" y="63" />
              <mxPoint x="480" y="245" />
            </Array>
          </mxGeometry>
        </mxCell>
        <mxCell id="cHCE-FeERzMHVEpSSORq-3" value="" style="endArrow=classic;html=1;rounded=1;labelBackgroundColor=default;strokeColor=default;align=center;verticalAlign=middle;fontFamily=Helvetica;fontSize=12;fontColor=default;startSize=8;endSize=8;shape=connector;edgeStyle=orthogonalEdgeStyle;curved=0;exitX=1;exitY=0.5;exitDx=0;exitDy=0;entryX=0;entryY=0.5;entryDx=0;entryDy=0;dashed=1;" edge="1" parent="1" source="N-EXLYOBHCz0gF71m2AQ-57" target="N-EXLYOBHCz0gF71m2AQ-76">
          <mxGeometry width="50" height="50" relative="1" as="geometry">
            <mxPoint x="490" y="210" as="sourcePoint" />
            <mxPoint x="540" y="160" as="targetPoint" />
            <Array as="points">
              <mxPoint x="480" y="133" />
              <mxPoint x="480" y="245" />
            </Array>
          </mxGeometry>
        </mxCell>
        <mxCell id="cHCE-FeERzMHVEpSSORq-4" value="" style="endArrow=classic;html=1;rounded=1;labelBackgroundColor=default;strokeColor=default;align=center;verticalAlign=middle;fontFamily=Helvetica;fontSize=12;fontColor=default;startSize=8;endSize=8;shape=connector;edgeStyle=orthogonalEdgeStyle;curved=0;exitX=1;exitY=0.5;exitDx=0;exitDy=0;entryX=0;entryY=0.5;entryDx=0;entryDy=0;dashed=1;" edge="1" parent="1" source="N-EXLYOBHCz0gF71m2AQ-68" target="N-EXLYOBHCz0gF71m2AQ-76">
          <mxGeometry width="50" height="50" relative="1" as="geometry">
            <mxPoint x="490" y="210" as="sourcePoint" />
            <mxPoint x="540" y="160" as="targetPoint" />
            <Array as="points">
              <mxPoint x="480" y="203" />
              <mxPoint x="480" y="245" />
            </Array>
          </mxGeometry>
        </mxCell>
        <mxCell id="cHCE-FeERzMHVEpSSORq-8" value="&lt;font style=&quot;font-size: 16px;&quot;&gt;Prediction&lt;/font&gt;" style="ellipse;whiteSpace=wrap;html=1;fontFamily=Helvetica;fontSize=12;fontColor=default;" vertex="1" parent="1">
          <mxGeometry x="535" y="597.5" width="120" height="80" as="geometry" />
        </mxCell>
        <mxCell id="cHCE-FeERzMHVEpSSORq-9" value="&lt;font style=&quot;font-size: 16px;&quot;&gt;Average&lt;br&gt;Score&lt;br&gt;&lt;/font&gt;" style="ellipse;whiteSpace=wrap;html=1;fontFamily=Helvetica;fontSize=12;fontColor=default;" vertex="1" parent="1">
          <mxGeometry x="150" y="475" width="120" height="80" as="geometry" />
        </mxCell>
      </root>
    </mxGraphModel>
  </diagram>
</mxfile>
